<svg width="150" height="201" viewBox="0 0 150 201" fill="none" xmlns="http://www.w3.org/2000/svg">
<path d="M0 5.43077C0 2.9683 1.96783 0.957221 4.42973 0.903702C29.4841 0.359041 52.2958 15.2731 61.8464 38.4421L65.6325 47.6269C70.4655 59.3516 72.2539 72.1083 70.8311 84.71L68.14 108.546C67.0793 117.941 75.4433 125.664 84.7238 123.859L106.62 119.602C115.517 117.872 124.216 115.244 132.582 111.757L150 104.5C150 157.795 106.795 201 53.5 201H5.10204C2.28426 201 0 198.716 0 195.898V5.43077Z" fill="#227C9D"/>
<path d="M60 14L149.5 94L144.887 96.4895C127.211 106.029 107.537 111.272 87.4575 111.793C83.3054 111.901 80.0619 108.235 80.6751 104.127L82.1491 94.2508C83.707 83.8133 83.6383 73.1974 81.9456 62.7808C79.3523 46.8216 73.0083 31.7058 63.4353 18.6759L60 14Z" fill="#FE6D73"/>
</svg>
